<svg width="104" height="27" viewBox="0 0 104 27" fill="none" xmlns="http://www.w3.org/2000/svg">
<path d="M0 19.5V19.084L2.314 17.992L2.86 3.822L0.546 2.756V2.34H8.034L12.792 13.338L17.42 2.34H24.726V2.756L22.412 3.484L22.854 17.992L24.934 19.084V19.5H15.834V19.084L18.018 18.018L17.784 6.032L12.038 19.63H10.374L4.498 5.954L4.16 18.018L6.526 19.084V19.5H0Z" transform="translate(0.780029 0.5)" fill="black"/>
<path d="M27.8604 25.766C27.4618 25.766 27.2104 25.7053 27.1064 25.584C27.0198 25.48 26.9764 25.2893 26.9764 25.012V22.906L27.1324 22.75H28.2764C28.9178 22.75 29.4464 22.6633 29.8624 22.49C30.2958 22.334 30.6684 21.8573 30.9804 21.06L31.5004 19.734L26.0664 8.606L24.5324 7.956V7.54H32.3584V7.956L31.0584 8.684V8.736L33.5544 13.728H33.7884L35.5304 8.788V8.736L34.2824 7.956V7.54H39.1444V7.956L37.3764 8.814L32.1504 21.554C31.9078 22.1607 31.7171 22.6287 31.5784 22.958C31.4398 23.2873 31.1711 23.7207 30.7724 24.258C30.4084 24.7607 29.9491 25.1333 29.3944 25.376C28.8398 25.636 28.3284 25.766 27.8604 25.766Z" transform="translate(0.780029 0.5)" fill="black"/>
<path d="M39.0193 19.5V19.084L40.8133 18.252V10.504L39.0973 9.386V8.97L44.8173 7.28H45.2333L45.4673 9.698H45.5973C46.2733 8.67533 46.8193 8.01667 47.2353 7.722C47.6513 7.42733 48.128 7.28 48.6653 7.28C48.96 7.28 49.2893 7.34067 49.6533 7.462C50.1733 7.63533 50.4333 7.88667 50.4333 8.216C50.4333 8.33733 50.4073 8.476 50.3553 8.632L49.6533 10.608H49.4713L49.0033 10.452C48.4486 10.2613 47.92 10.166 47.4173 10.166C46.6893 10.166 46.048 10.4867 45.4933 11.128V18.252L47.7553 19.084V19.5H39.0193Z" transform="translate(0.780029 0.5)" fill="black"/>
<path d="M56.8126 19.76C54.958 19.76 53.4933 19.24 52.4186 18.2C51.344 17.16 50.8066 15.782 50.8066 14.066C50.8066 12.0727 51.474 10.4433 52.8086 9.178C54.1606 7.91267 55.8246 7.28 57.8006 7.28C59.2393 7.28 60.34 7.748 61.1026 8.684C61.8653 9.60267 62.264 10.894 62.2986 12.558L62.2206 12.688H55.2786C55.2786 12.8093 55.2786 12.9393 55.2786 13.078C55.2786 14.066 55.582 14.872 56.1886 15.496C56.7953 16.1027 57.74 16.406 59.0226 16.406C59.5253 16.406 60.0453 16.3627 60.5826 16.276C61.1373 16.1893 61.692 16.0073 62.2466 15.73H62.3246V16.276C61.8913 17.2813 61.1893 18.1133 60.2186 18.772C59.2653 19.4307 58.13 19.76 56.8126 19.76ZM57.0726 8.45C56.1366 8.45 55.5646 9.48133 55.3566 11.544H58.8146C58.728 10.348 58.5373 9.53333 58.2426 9.1C57.948 8.66667 57.558 8.45 57.0726 8.45Z" transform="translate(0.780029 0.5)" fill="black"/>
<path d="M66.9508 19.734C66.0841 19.734 65.3301 19.4653 64.6888 18.928C64.0475 18.3733 63.7355 17.5847 63.7528 16.562C63.7701 15.5567 64.0475 14.8113 64.5848 14.326C65.1221 13.8233 66.2575 13.3467 67.9908 12.896L70.4348 12.246V10.842C70.4348 9.36867 69.7675 8.632 68.4328 8.632C67.4795 8.632 67.0028 9.00467 67.0028 9.75V11.258L66.9248 11.362H64.9488C64.4808 11.362 64.2468 11.076 64.2468 10.504C64.2468 10.1227 64.4201 9.75867 64.7668 9.412C65.1135 9.06533 65.5555 8.72733 66.0928 8.398C66.8035 7.96467 67.4361 7.67 67.9908 7.514C68.5455 7.358 69.1521 7.28 69.8108 7.28C71.3188 7.28 72.5755 7.58333 73.5808 8.19C74.6035 8.79667 75.1148 9.70667 75.1148 10.92V17.472C75.4095 17.732 75.7821 17.862 76.2328 17.862H76.8048L76.9088 17.966V18.512C76.7181 18.7893 76.3801 19.0667 75.8948 19.344C75.4095 19.6213 74.7595 19.76 73.9448 19.76C72.2635 19.76 71.1281 19.1187 70.5388 17.836H70.4348C70.0015 18.3733 69.4988 18.824 68.9268 19.188C68.3721 19.552 67.7135 19.734 66.9508 19.734ZM68.0948 15.678C68.0948 16.77 68.6235 17.316 69.6808 17.316C69.9235 17.316 70.1748 17.2727 70.4348 17.186V13.442C69.6028 13.6327 69.0048 13.8927 68.6408 14.222C68.2768 14.5513 68.0948 15.0367 68.0948 15.678Z" transform="translate(0.780029 0.5)" fill="black"/>
<path d="M81.8293 19.76C80.772 19.76 79.7926 19.2833 78.8913 18.33C78.0073 17.3593 77.5653 16.0593 77.5653 14.43C77.5653 12.2633 78.1026 10.53 79.1773 9.23C80.2693 7.93 81.734 7.28 83.5713 7.28C84.3513 7.28 85.036 7.358 85.6253 7.514V2.964L83.7793 1.794V1.43L89.8893 0H90.3053V18.33L92.0993 19.084V19.5H85.8853L85.6773 18.226H85.4953C84.2993 19.2487 83.0773 19.76 81.8293 19.76ZM82.2453 13.494C82.2453 14.8287 82.4793 15.8167 82.9473 16.458C83.4326 17.082 83.9266 17.394 84.4293 17.394C84.672 17.394 84.8713 17.368 85.0273 17.316C85.2006 17.2467 85.4 17.1513 85.6253 17.03V9.386C85.4173 8.93533 85.0186 8.71 84.4293 8.71C83.84 8.71 83.3287 9.01333 82.8953 9.62C82.462 10.2093 82.2453 11.5007 82.2453 13.494Z" transform="translate(0.780029 0.5)" fill="black"/>
<path d="M97.8618 19.76C96.9778 19.76 96.2064 19.6733 95.5478 19.5C94.8891 19.3093 94.2564 19.0667 93.6498 18.772V15.704H94.0658L95.0278 17.03C95.7038 17.9833 96.6051 18.46 97.7318 18.46C98.9971 18.46 99.6298 18.0527 99.6298 17.238C99.6298 16.822 99.4478 16.4927 99.0838 16.25C98.7198 15.99 97.9138 15.6173 96.6658 15.132C95.6258 14.7333 94.8804 14.248 94.4298 13.676C93.9791 13.104 93.7538 12.4453 93.7538 11.7C93.7538 10.4693 94.1958 9.42933 95.0798 8.58C95.9811 7.71333 97.1944 7.28 98.7198 7.28C99.2744 7.28 99.8378 7.332 100.41 7.436C100.999 7.54 101.562 7.73067 102.1 8.008V11.258H101.684L100.904 10.14C100.522 9.60267 100.167 9.204 99.8378 8.944C99.5084 8.684 99.0664 8.554 98.5118 8.554C97.4544 8.554 96.9258 9.00467 96.9258 9.906C96.9258 10.2873 97.0731 10.6167 97.3678 10.894C97.6798 11.154 98.4424 11.5007 99.6558 11.934C100.384 12.194 101.086 12.558 101.762 13.026C102.438 13.494 102.776 14.3433 102.776 15.574C102.776 16.8393 102.29 17.8533 101.32 18.616C100.349 19.3787 99.1964 19.76 97.8618 19.76Z" transform="translate(0.780029 0.5)" fill="black"/>
</svg>
