<svg width="20" height="21" viewBox="0 0 20 21" fill="none" xmlns="http://www.w3.org/2000/svg">
<g opacity="0.2">
<path d="M19.6959 18.8686L14.7656 13.7408C16.0332 12.2339 16.7278 10.3378 16.7278 8.36391C16.7278 3.75212 12.9757 0 8.36391 0C3.75212 0 9.88385e-09 3.75212 9.88385e-09 8.36391C9.88385e-09 12.9757 3.75212 16.7278 8.36391 16.7278C10.0952 16.7278 11.7451 16.2056 13.1557 15.2143L18.1235 20.381C18.3311 20.5967 18.6104 20.7156 18.9097 20.7156C19.193 20.7156 19.4617 20.6076 19.6657 20.4112C20.0992 19.9941 20.113 19.3024 19.6959 18.8686ZM8.36391 2.18189C11.7727 2.18189 14.5459 4.95507 14.5459 8.36391C14.5459 11.7727 11.7727 14.5459 8.36391 14.5459C4.95507 14.5459 2.18189 11.7727 2.18189 8.36391C2.18189 4.95507 4.95507 2.18189 8.36391 2.18189Z" fill="black"/>
</g>
</svg>
